<svg xmlns="http://www.w3.org/2000/svg" xmlns:xlink="http://www.w3.org/1999/xlink" viewBox="0 0 225.38 90.18"><defs><style>.cls-1,.cls-4{fill:#c84030;}.cls-2,.cls-5{fill:#e6ad2e;}.cls-2{stroke:#e6ad2e;}.cls-11,.cls-2,.cls-3,.cls-7,.cls-8,.cls-9{stroke-miterlimit:10;}.cls-3,.cls-6{fill:#412d81;}.cls-3{stroke:#412d81;}.cls-4{font-size:34.33px;font-family:AquaGrotesque, Aqua Grotesque;}.cls-11,.cls-12,.cls-7,.cls-8,.cls-9{fill:none;}.cls-7{stroke:#8d8d8d;}.cls-11,.cls-8,.cls-9{stroke:#fff;}.cls-9{stroke-dasharray:9.23 9.23;}.cls-10{fill:#fff;}.cls-11{stroke-dasharray:11.14 11.14;}</style><symbol id="rescalar" data-name="rescalar" viewBox="0 0 686.97 187.72"><path class="cls-1" d="M42.15,110H53a1.77,1.77,0,0,1,1.77,1.77v10A1.77,1.77,0,0,1,53,123.47H42.15a1.78,1.78,0,0,1-1.78-1.78v-10A1.78,1.78,0,0,1,42.15,110Zm0,37.19H53a1.77,1.77,0,0,1,1.77,1.78V164a1.77,1.77,0,0,1-.59,1.33l-10.89,9.74a1.77,1.77,0,0,1-3-1.32V148.93A1.78,1.78,0,0,1,42.15,147.15Z"/><rect class="cls-2" x="0.5" y="0.5" width="186.46" height="93.36" rx="12"/><path class="cls-3" d="M93.73,175.21V.5H175a12,12,0,0,1,12,12V175.21a12,12,0,0,1-12,12H105.73A12,12,0,0,1,93.73,175.21Z"/><text class="cls-4" transform="translate(218.92 61.46) scale(0.99 1)">Test-driven Development<tspan class="cls-5"><tspan x="0" y="41.2">Methodology for IoT </tspan></tspan><tspan class="cls-6"><tspan x="0" y="82.39">based System</tspan></tspan></text><line class="cls-7" x1="203.32" y1="187.37" x2="203.32" y2="0.65"/><line class="cls-8" x1="47.28" y1="48.61" x2="52.28" y2="48.61"/><line class="cls-9" x1="61.51" y1="48.61" x2="130.73" y2="48.61"/><line class="cls-8" x1="135.35" y1="48.61" x2="140.35" y2="48.61"/><path class="cls-10" d="M47.47,52.37a3.76,3.76,0,1,1,3.76-3.76A3.76,3.76,0,0,1,47.47,52.37Z"/><line class="cls-8" x1="140.35" y1="136.14" x2="140.35" y2="131.14"/><line class="cls-11" x1="140.35" y1="120" x2="140.35" y2="58.76"/><line class="cls-8" x1="140.35" y1="53.19" x2="140.35" y2="48.19"/><polygon class="cls-10" points="143.67 131.15 140.35 135.09 137.02 131.15 140.35 142.6 143.67 131.15"/><polygon class="cls-10" points="142.71 132.77 140.35 141.34 140.35 135.69 142.71 132.77"/></symbol></defs><title>marcaAguaicon</title><g id="Capa_2" data-name="Capa 2"><g id="Capa_1-2" data-name="Capa 1"><rect class="cls-12" width="225.38" height="90.18"/><use width="686.97" height="187.71" transform="translate(19.58 19.49) scale(0.27)" xlink:href="#rescalar"/></g></g></svg>