<?xml version="1.0" encoding="utf-8"?>
<!-- Generator: Adobe Illustrator 23.0.5, SVG Export Plug-In . SVG Version: 6.00 Build 0)  -->
<svg version="1.1" id="Layer_1" xmlns="http://www.w3.org/2000/svg" xmlns:xlink="http://www.w3.org/1999/xlink" x="0px" y="0px"
	 viewBox="0 0 512 512" style="enable-background:new 0 0 512 512;" xml:space="preserve">
<style type="text/css">
	.st0{fill:#366700;}
	.st1{fill-rule:evenodd;clip-rule:evenodd;fill:#A4FBC4;}
</style>
<g>
	<path class="st0" d="M482,166h20c5.5,0,10-4.5,10-10V30c0-16.5-13.5-30-30-30H356c-5.5,0-10,4.5-10,10v20c0,5.5-4.5,10-10,10H176
		c-5.5,0-10-4.5-10-10V10c0-5.5-4.5-10-10-10H30C13.5,0,0,13.5,0,30v452c0,16.5,13.5,30,30,30h452c16.5,0,30-13.5,30-30V356
		c0-5.5-4.5-10-10-10h-20c-5.5,0-10-4.5-10-10V176C472,170.5,476.5,166,482,166z M482,366h10v116c0,5.5-4.5,10-10,10H30
		c-5.5,0-10-4.5-10-10V30c0-5.5,4.5-10,10-10h116v10c0,16.5,13.5,30,30,30h160c16.5,0,30-13.5,30-30V20h116c5.5,0,10,4.5,10,10v116
		h-10c-16.5,0-30,13.5-30,30v160C452,352.5,465.5,366,482,366z"/>
	<path class="st0" d="M196,106c-5.5,0-10,4.5-10,10v47c0,5.5,4.5,10,10,10s10-4.5,10-10v-47C206,110.5,201.5,106,196,106z"/>
	<path class="st0" d="M236,106c-5.5,0-10,4.5-10,10v47c0,5.5,4.5,10,10,10s10-4.5,10-10v-47C246,110.5,241.5,106,236,106z"/>
	<path class="st0" d="M276,106c-5.5,0-10,4.5-10,10v47c0,5.5,4.5,10,10,10s10-4.5,10-10v-47C286,110.5,281.5,106,276,106z"/>
	<path class="st0" d="M316,173c5.5,0,10-4.5,10-10v-47c0-5.5-4.5-10-10-10s-10,4.5-10,10v47C306,168.5,310.5,173,316,173z"/>
	<path class="st0" d="M161,306h-45c-13.2,0.5-13.3,19.5,0,20h45c5.5,0,10-4.5,10-10S166.5,306,161,306z"/>
	<path class="st0" d="M161,266h-45c-13.2,0.5-13.3,19.5,0,20h45c5.5,0,10-4.5,10-10S166.5,266,161,266z"/>
	<path class="st0" d="M161,226h-45c-13.2,0.5-13.3,19.5,0,20h45c5.5,0,10-4.5,10-10S166.5,226,161,226z"/>
	<path class="st0" d="M276,336c-5.5,0-10,4.5-10,10v50c0,5.5,4.5,10,10,10s10-4.5,10-10v-50C286,340.5,281.5,336,276,336z"/>
	<path class="st0" d="M236,336c-5.5,0-10,4.5-10,10v50c0,5.5,4.5,10,10,10s10-4.5,10-10v-50C246,340.5,241.5,336,236,336z"/>
	<path class="st0" d="M196,336c-5.5,0-10,4.5-10,10v71h-67.5c-12.1-38.1-67.7-30.4-68.5,10c0.9,40.4,56.5,48.1,68.5,10H196
		c5.5,0,10-4.5,10-10v-81C206,340.5,201.5,336,196,336z M85,442c-8.3,0-15-6.7-15-15c0.8-19.9,29.3-19.9,30,0
		C100,435.3,93.3,442,85,442z"/>
	<path class="st0" d="M348,206h48c13.2-0.5,13.3-19.5,0-20h-48c-5.5,0-10,4.5-10,10S342.5,206,348,206z"/>
	<path class="st0" d="M348,246h48c13.2-0.5,13.3-19.5,0-20h-48c-5.5,0-10,4.5-10,10S342.5,246,348,246z"/>
	<path class="st0" d="M348,286h48c13.2-0.5,13.3-19.5,0-20h-48c-5.5,0-10,4.5-10,10S342.5,286,348,286z"/>
	<path class="st0" d="M348,326h48c13.2-0.5,13.3-19.5,0-20h-48c-5.5,0-10,4.5-10,10S342.5,326,348,326z"/>
	<path class="st0" d="M75,118.5V196c0,5.5,4.5,10,10,10h76c5.5,0,10-4.5,10-10s-4.5-10-10-10H95v-67.5c38.1-12.1,30.4-67.7-10-68.5
		C44.6,50.9,36.9,106.5,75,118.5z M85,70c8.3,0,15,6.7,15,15c-0.8,19.9-29.3,19.9-30,0C70,76.7,76.7,70,85,70z"/>
	<path class="st0" d="M427,392c-15.8,0-29.2,10.6-33.5,25H326v-71c0-5.5-4.5-10-10-10s-10,4.5-10,10v81c0,5.5,4.5,10,10,10h77.5
		c12.1,38.1,67.7,30.4,68.5-10C462,407.7,446.3,392,427,392z M427,442c-8.3,0-15-6.7-15-15c0.8-19.9,29.3-19.9,30,0
		C442,435.3,435.3,442,427,442z"/>
</g>
<path class="st1" d="M176,156h160c11,0,20,9,20,20v160c0,11-9,20-20,20H176c-11,0-20-9-20-20V176C156,165,165,156,176,156z"/>
<g>
	<path class="st0" d="M276,326h-80c-5.5,0-10-4.5-10-10V196c0-5.5,4.5-10,10-10h120c5.5,0,10,4.5,10,10v80c0,2.7-1.1,5.2-2.9,7.1
		l-40,40C281.2,324.9,278.7,326,276,326z M206,306h65.9l34.1-34.1V206H206V306z"/>
</g>
</svg>
