<svg xmlns="http://www.w3.org/2000/svg" viewBox="0 0 228.23 178.21"><defs><style>.cls-1{fill:#fff;}.cls-1,.cls-2{stroke:#bd5433;}.cls-1,.cls-2,.cls-3,.cls-4,.cls-5,.cls-6,.cls-7{stroke-linecap:round;}.cls-1,.cls-2,.cls-3,.cls-4,.cls-5,.cls-6{stroke-miterlimit:10;stroke-width:3.95px;}.cls-2,.cls-4{fill:none;}.cls-3{fill:#6ba7dd;}.cls-3,.cls-4{stroke:#222221;}.cls-5{fill:#dbab36;stroke:#dbab36;}.cls-6{fill:#382d72;stroke:#382d72;}.cls-7{fill:#51a04d;stroke:#51a04d;stroke-linejoin:round;stroke-width:4.74px;}</style></defs><title>registroUsuarioicon</title><g id="Capa_2" data-name="Capa 2"><g id="Capa_1-2" data-name="Capa 1"><path class="cls-1" d="M138.21,149.41H11.47c-5.22,0-9.49-4.63-9.49-10.28V12.25C2,6.6,6.25,2,11.47,2h191c5.22,0,9.49,4.62,9.49,10.27V96.93"/><line class="cls-2" x1="1.98" y1="33.13" x2="211.93" y2="33.13"/><rect class="cls-3" x="21.06" y="51.56" width="57.49" height="36.95" rx="9.49"/><line class="cls-4" x1="100.9" y1="63.81" x2="197.8" y2="63.81"/><line class="cls-4" x1="100.9" y1="76.73" x2="135.62" y2="76.73"/><line class="cls-4" x1="197.8" y1="76.73" x2="149.35" y2="76.73"/><line class="cls-4" x1="100.9" y1="87.84" x2="197.8" y2="87.84"/><line class="cls-4" x1="100.9" y1="50.89" x2="135.62" y2="50.89"/><line class="cls-4" x1="197.8" y1="50.89" x2="149.35" y2="50.89"/><line class="cls-4" x1="20.94" y1="111.9" x2="117.84" y2="111.9"/><line class="cls-4" x1="20.94" y1="124.82" x2="55.66" y2="124.82"/><line class="cls-4" x1="117.84" y1="124.82" x2="69.39" y2="124.82"/><line class="cls-4" x1="20.94" y1="135.93" x2="117.84" y2="135.93"/><line class="cls-4" x1="20.94" y1="98.98" x2="55.66" y2="98.98"/><line class="cls-4" x1="117.84" y1="98.98" x2="69.39" y2="98.98"/><path class="cls-1" d="M226.26,141.21a35,35,0,1,1-38.17-34.88"/><rect class="cls-5" x="75.46" y="12.95" width="122.34" height="10.5" rx="5.25"/><circle class="cls-6" cx="16.94" cy="18.99" r="4.55"/><circle class="cls-6" cx="33.57" cy="18.99" r="4.55"/><circle class="cls-6" cx="50.14" cy="18.99" r="4.55"/><circle class="cls-5" cx="191.24" cy="141.21" r="21.54"/><line class="cls-7" x1="178.49" y1="132.82" x2="192.71" y2="148.62"/><line class="cls-7" x1="221.84" y1="117.03" x2="192.71" y2="148.62"/></g></g></svg>